<?xml version="1.0" encoding="utf-8"?>
<!-- Generator: Adobe Illustrator 19.2.0, SVG Export Plug-In . SVG Version: 6.00 Build 0)  -->
<svg version="1.1" id="Layer_1" xmlns="http://www.w3.org/2000/svg" xmlns:xlink="http://www.w3.org/1999/xlink" x="0px" y="0px"
	 viewBox="0 0 109.4 31.9" style="enable-background:new 0 0 109.4 31.9;" xml:space="preserve">
<style type="text/css">
	.st0{clip-path:url(#SVGID_2_);fill:#FFFFFF;}
	.st1{fill:#FFFFFF;}
	.st2{clip-path:url(#SVGID_4_);fill:#FFFFFF;}
	.st3{clip-path:url(#SVGID_6_);fill:#FFFFFF;}
	.st4{clip-path:url(#SVGID_8_);fill:none;stroke:#FFFFFF;stroke-width:0.569;stroke-miterlimit:10;}
</style>
<g>
	<g>
		<g>
			<defs>
				<rect id="SVGID_1_" y="2.3" width="109.4" height="27.6"/>
			</defs>
			<clipPath id="SVGID_2_">
				<use xlink:href="#SVGID_1_"  style="overflow:visible;"/>
			</clipPath>
			<path class="st0" d="M17.1,24.9v-4.5H19v-7.9c-0.6,2.1-1.3,4.2-2,6.2s-1.2,4.1-1.9,6.1h-3.4c-0.6-1.8-1.2-3.6-1.8-5.4
				c-0.8-2.3-1.4-4.6-2.3-6.8v7.6h2.1v4.5l-9.8-0.1v-4.5h2V11h-2V6.5l13.7,0.1c0.5,1.6,1.1,3.2,1.6,4.8c0.5-1.7,1.2-3.2,1.8-4.8
				l11.8,0.1v4.5h-2v9.1h2v4.5"/>
		</g>
	</g>
	<polyline class="st1" points="39.1,25 39.2,20.5 41.2,20.5 41.2,11.4 39.2,11.4 39.2,6.9 51.3,6.9 51.3,11.4 49.2,11.4 49.2,20.5 
		51.2,20.5 51.2,25.1 	"/>
	<g>
		<g>
			<defs>
				<rect id="SVGID_3_" y="2.3" width="109.4" height="27.6"/>
			</defs>
			<clipPath id="SVGID_4_">
				<use xlink:href="#SVGID_3_"  style="overflow:visible;"/>
			</clipPath>
			<path class="st2" d="M74.8,15.5v-0.2c0-1.7-0.5-4-2.6-4c-2.7,0-2.9,3-2.9,5s0.3,5,2.9,5.1c2.4,0,2.9-2,2.7-4h5.2v0.9
				c-0.1,5.3-4.2,7.4-9.1,7.3c-6.1,0-10.2-3.1-10.2-9.4c0-5.4,3.4-9.5,8.9-9.4c2.6,0,4,0.8,5.4,2.9l0.1-2.5h4.9v8.5"/>
		</g>
		<g>
			<defs>
				<rect id="SVGID_5_" y="2.3" width="109.4" height="27.6"/>
			</defs>
			<clipPath id="SVGID_6_">
				<use xlink:href="#SVGID_5_"  style="overflow:visible;"/>
			</clipPath>
			<path class="st3" d="M96.9,13c-0.3,1.2-0.7,2.4-1,3.6h2C97.6,15.4,97.2,14.2,96.9,13 M97.3,25.3v-4.5H99
				c-0.2-0.7-0.4-1.4-0.6-2.1h-3.1c-0.2,0.7-0.4,1.4-0.6,2.1h1.9v4.5h-8.3v-4.5h1.6c1.5-4.5,3-9.1,4.6-13.6h8.2
				c1.4,4.6,2.8,9.1,4.4,13.6h2.2v4.5"/>
		</g>
		<g>
			<defs>
				<rect id="SVGID_7_" y="2.3" width="109.4" height="27.6"/>
			</defs>
			<clipPath id="SVGID_8_">
				<use xlink:href="#SVGID_7_"  style="overflow:visible;"/>
			</clipPath>
			<path class="st4" d="M33.8,29.5l0.1-27.3 M55.9,29.7l0.2-27.3"/>
		</g>
	</g>
	
		<rect x="71.3" y="15.9" transform="matrix(0.3226 -0.9465 0.9465 0.3226 42.6444 92.0057)" class="st1" width="28.7" height="0.6"/>
</g>
</svg>
