<?xml version="1.0" encoding="utf-8"?>
<!-- Generator: Adobe Illustrator 19.1.0, SVG Export Plug-In . SVG Version: 6.00 Build 0)  -->
<svg version="1.1" id="Layer_1" xmlns="http://www.w3.org/2000/svg" xmlns:xlink="http://www.w3.org/1999/xlink" x="0px" y="0px"
	 viewBox="0 0 143.2 31.9" enable-background="new 0 0 143.2 31.9" xml:space="preserve">
<g>
	<g>
		<defs>
			<rect id="SVGID_1_" x="16.9" y="2.3" width="109.4" height="27.6"/>
		</defs>
		<clipPath id="SVGID_2_">
			<use xlink:href="#SVGID_1_"  overflow="visible"/>
		</clipPath>
		<path clip-path="url(#SVGID_2_)" fill="#FFFFFF" d="M34,24.9l0-4.5l1.9,0l0-7.9c-0.6,2.1-1.3,4.2-2,6.2c-0.7,2-1.2,4.1-1.9,6.1
			l-3.4,0c-0.6-1.8-1.2-3.6-1.8-5.4c-0.8-2.3-1.4-4.6-2.3-6.8l0,7.6l2.1,0l0,4.5l-9.8-0.1l0-4.5l2,0l0-9.1l-2,0l0-4.5l13.7,0.1
			c0.5,1.6,1.1,3.2,1.6,4.8c0.5-1.7,1.2-3.2,1.8-4.8l11.8,0.1l0,4.5l-2,0l0,9.1l2,0l0,4.5"/>
	</g>
	<polyline fill="#FFFFFF" points="56,25 56.1,20.5 58.1,20.5 58.1,11.4 56.1,11.4 56.1,6.9 68.2,6.9 68.2,11.4 66.1,11.4 66.1,20.5 
		68.1,20.5 68.1,25.1 	"/>
	<g>
		<defs>
			<rect id="SVGID_3_" x="16.9" y="2.3" width="109.4" height="27.6"/>
		</defs>
		<clipPath id="SVGID_4_">
			<use xlink:href="#SVGID_3_"  overflow="visible"/>
		</clipPath>
		<path clip-path="url(#SVGID_4_)" fill="#FFFFFF" d="M91.7,15.5l0-0.2c0-1.7-0.5-4-2.6-4c-2.7,0-2.9,3-2.9,5c0,2,0.3,5,2.9,5.1
			c2.4,0,2.9-2,2.7-4l5.2,0l0,0.9c-0.1,5.3-4.2,7.4-9.1,7.3c-6.1,0-10.2-3.1-10.2-9.4c0-5.4,3.4-9.5,8.9-9.4c2.6,0,4,0.8,5.4,2.9
			l0.1-2.5l4.9,0l0,8.5"/>
		<path clip-path="url(#SVGID_4_)" fill="#FFFFFF" d="M113.8,13c-0.3,1.2-0.7,2.4-1,3.6l2,0C114.5,15.4,114.1,14.2,113.8,13
			 M114.2,25.3l0-4.5l1.7,0c-0.2-0.7-0.4-1.4-0.6-2.1l-3.1,0c-0.2,0.7-0.4,1.4-0.6,2.1l1.9,0l0,4.5l-8.3,0l0-4.5l1.6,0
			c1.5-4.5,3-9.1,4.6-13.6l8.2,0c1.4,4.6,2.8,9.1,4.4,13.6l2.2,0l0,4.5"/>
		<path clip-path="url(#SVGID_4_)" fill="none" stroke="#FFFFFF" stroke-width="0.569" stroke-miterlimit="10" d="M50.7,29.5
			l0.1-27.3 M72.8,29.7L73,2.4"/>
	</g>
	
		<rect x="102.2" y="1.8" transform="matrix(-0.9465 -0.3226 0.3226 -0.9465 194.3093 64.5613)" fill="#FFFFFF" width="0.6" height="28.7"/>
</g>
</svg>
